<svg xmlns="http://www.w3.org/2000/svg" xmlns:svg="http://www.w3.org/2000/svg" id="svg2" width="744.094" height="1052.362" version="1.1"><metadata id="metadata7"/><g id="layer1"><rect id="rect3868" width="735.457" height="1043.553" x="4.513" y="4.296" fill="#fff" fill-opacity="1" stroke="#fff" stroke-dasharray="none" stroke-linecap="round" stroke-linejoin="bevel" stroke-miterlimit="4" stroke-width="6.145"/><rect id="rect3874" width="288.057" height="275.935" x="395.133" y="293.968" fill="#5a0" fill-opacity="1" stroke="#fff" stroke-dasharray="none" stroke-linecap="round" stroke-linejoin="bevel" stroke-miterlimit="4" stroke-width="5.822"/><path id="path2987" fill="#5a0" fill-opacity="1" stroke="none" d="m 111.92815,143.03864 c 20.28216,41.54804 75.36954,56.06499 123.04707,32.42007 47.67752,-23.64492 69.88007,-76.492596 49.59791,-118.040626 l -0.0557,0.0276 c 5.88607,15.82979 -26.25237,46.802536 -72.98962,69.981136 -46.73799,23.17897 -90.69326,29.94408 -99.54408,15.58424 l -0.0557,0.0276 z"/><path id="path2985" fill="#e15d55" fill-opacity="1" stroke="#fff" stroke-dasharray="none" stroke-miterlimit="4" stroke-width="6.074" d="m 293.95439,348.28586 a 102.53049,31.31473 0 1 1 -205.060973,0 102.53049,31.31473 0 1 1 205.060973,0 z" transform="matrix(0.84422795,-0.41538771,0.45572684,0.92621263,-123.45123,-145.20452)"/><text id="text3766" x="90.754" y="251.672" fill="#5a0" fill-opacity="1" stroke="none" font-family="Orienta" font-size="67.54" font-stretch="normal" font-style="normal" font-variant="normal" font-weight="normal" letter-spacing="0" word-spacing="0" xml:space="preserve" style="line-height:125%;-inkscape-font-specification:Orienta"><tspan id="tspan3768" x="90.754" y="251.672" fill="#5a0" fill-opacity="1" letter-spacing="-4.37">melon<tspan id="tspan3870" fill="#e15d55" fill-opacity="1">.</tspan>js</tspan></text><path id="path3778" fill="#2b1100" fill-opacity="1" stroke="none" d="m 440.23344,143.87548 c 20.28216,41.54804 75.36955,56.06499 123.04708,32.42007 47.67752,-23.64492 69.88007,-76.492596 49.59791,-118.040626 l -0.0557,0.0276 c 5.88607,15.82979 -26.25237,46.802536 -72.98962,69.981136 -46.73799,23.17897 -90.69326,29.94408 -99.54409,15.58424 l -0.0557,0.0276 z"/><path id="path3780" fill="#000" fill-opacity="1" stroke="#fff" stroke-dasharray="none" stroke-miterlimit="4" stroke-width="6.074" d="m 293.95439,348.28586 a 102.53049,31.31473 0 1 1 -205.060973,0 102.53049,31.31473 0 1 1 205.060973,0 z" transform="matrix(0.84422795,-0.41538771,0.45572684,0.92621263,204.85407,-144.36768)"/><text font-stretch="normal" style="line-height:125%;-inkscape-font-specification:Orienta" id="text3782" x="419.059" y="252.509" fill="#241c1c" fill-opacity="1" stroke="none" font-family="Orienta" font-size="67.54" font-style="normal" font-variant="normal" font-weight="normal" letter-spacing="0" word-spacing="0" xml:space="preserve"><tspan id="tspan3784" x="419.059" y="252.509" fill="#241c1c" letter-spacing="-4.37">melon.js</tspan></text><rect id="rect3816" width="288.057" height="275.935" x="70.874" y="296.999" fill="#000" fill-opacity="1" stroke="#fff" stroke-dasharray="none" stroke-linecap="round" stroke-linejoin="bevel" stroke-miterlimit="4" stroke-width="5.822"/><path id="path3790" fill="#5a0" fill-opacity="1" stroke="none" d="m 114.95861,427.01293 c 20.22185,40.83208 75.14543,55.09889 122.68118,31.86141 47.53575,-23.23748 69.67228,-75.17449 49.45043,-116.00658 l -0.0555,0.0272 c 5.86857,15.55701 -26.1743,45.99605 -72.77258,68.77524 -46.59901,22.77955 -90.42357,29.42808 -99.24807,15.31569 l -0.0555,0.0272 z"/><path id="path3792" fill="#e15d55" fill-opacity="1" stroke="#000" stroke-dasharray="none" stroke-miterlimit="4" stroke-width="5.276" d="m 293.95439,348.28586 a 102.53049,31.31473 0 1 1 -205.060973,0 102.53049,31.31473 0 1 1 205.060973,0 z" transform="matrix(0.81665887,-0.40182283,0.44084463,0.89596626,-109.53867,148.35385)"/><text font-stretch="normal" style="line-height:125%;-inkscape-font-specification:Orienta" id="text3794" x="93.785" y="536.535" fill="#5a0" fill-opacity="1" stroke="none" font-family="Orienta" font-size="67.54" font-style="normal" font-variant="normal" font-weight="normal" letter-spacing="0" word-spacing="0" xml:space="preserve"><tspan id="tspan3796" x="93.785" y="536.535" fill="#5a0" fill-opacity="1" letter-spacing="-4.37">melon<tspan id="tspan3904" fill="#e15d55" fill-opacity="1">.</tspan>js</tspan></text><path id="path3798" fill="#fff" fill-opacity="1" stroke="none" d="m 442.54961,426.14401 c 20.28216,39.94243 75.36955,53.89838 123.04708,31.1672 47.67752,-22.73116 69.88007,-73.53657 49.59792,-113.47898 l -0.0557,0.0265 c 5.88606,15.21805 -26.25238,44.99387 -72.98962,67.27674 -46.738,22.28323 -90.69326,28.7869 -99.54409,14.982 l -0.0557,0.0265 z"/><text id="text3802" x="422.09" y="537.372" fill="#fff" fill-opacity="1" stroke="none" font-family="Orienta" font-size="67.54" font-stretch="normal" font-style="normal" font-variant="normal" font-weight="normal" letter-spacing="0" word-spacing="0" xml:space="preserve" style="line-height:125%;-inkscape-font-specification:Orienta"><tspan id="tspan3804" x="422.09" y="537.372" fill="#fff" fill-opacity="1" letter-spacing="-4.37">melon.js</tspan></text><text id="text3810" x="76.891" y="1013.744" fill="#000" fill-opacity="1" stroke="none" font-family="Orienta" font-size="22" font-stretch="normal" font-style="normal" font-variant="normal" font-weight="normal" letter-spacing="0" text-anchor="start" word-spacing="0" writing-mode="lr-tb" xml:space="preserve" style="text-align:start;line-height:125%;-inkscape-font-specification:Orienta"><tspan id="tspan3812" x="76.891" y="1013.744">Font: http://www.google.com/fonts/specimen/Orienta</tspan></text><rect id="rect3820" width="64.65" height="61.619" x="163.74" y="749.054" fill="#e15d55" fill-opacity="1" stroke="#fff" stroke-dasharray="none" stroke-linecap="round" stroke-linejoin="bevel" stroke-miterlimit="4" stroke-width="5.986"/><text id="text3822" x="158.706" y="840.745" fill="#000" fill-opacity="1" stroke="none" font-family="Orienta" font-size="22" font-stretch="normal" font-style="normal" font-variant="normal" font-weight="normal" letter-spacing="0" text-anchor="start" word-spacing="0" writing-mode="lr-tb" xml:space="preserve" style="text-align:start;line-height:125%;-inkscape-font-specification:Orienta"><tspan id="tspan3824" x="158.706" y="840.745">e15d55</tspan></text><rect id="rect3826" width="64.65" height="61.619" x="329.146" y="749.054" fill="#fc0" fill-opacity="1" stroke="#fff" stroke-dasharray="none" stroke-linecap="round" stroke-linejoin="bevel" stroke-miterlimit="4" stroke-width="5.986"/><text id="text3828" x="328.153" y="839.735" fill="#000" fill-opacity="1" stroke="none" font-family="Orienta" font-size="22" font-stretch="normal" font-style="normal" font-variant="normal" font-weight="normal" letter-spacing="0" text-anchor="start" word-spacing="0" writing-mode="lr-tb" xml:space="preserve" style="text-align:start;line-height:125%;-inkscape-font-specification:Orienta"><tspan id="tspan3830" x="328.153" y="839.735">ffcc00</tspan></text><rect id="rect3832" width="64.65" height="61.619" x="497.197" y="748.044" fill="#5a0" fill-opacity="1" stroke="#fff" stroke-dasharray="none" stroke-linecap="round" stroke-linejoin="bevel" stroke-miterlimit="4" stroke-width="5.986"/><text id="text3834" x="491.214" y="840.745" fill="#000" fill-opacity="1" stroke="none" font-family="Orienta" font-size="22" font-stretch="normal" font-style="normal" font-variant="normal" font-weight="normal" letter-spacing="0" text-anchor="start" word-spacing="0" writing-mode="lr-tb" xml:space="preserve" style="text-align:start;line-height:125%;-inkscape-font-specification:Orienta"><tspan id="tspan3836" x="491.214" y="840.745">55aa00</tspan></text><text id="text3838" x="130.857" y="913.019" fill="#000" fill-opacity="1" stroke="none" font-family="Iconic" font-size="28.515" font-stretch="normal" font-style="normal" font-variant="normal" font-weight="normal" letter-spacing="0" word-spacing="0" xml:space="preserve" style="line-height:125%;-inkscape-font-specification:Iconic"><tspan id="tspan3842" x="130.857" y="913.019" font-family="Orienta" font-stretch="normal" font-style="normal" font-variant="normal" font-weight="normal" style="-inkscape-font-specification:Orienta">Grumpy wizards make toxic brew</tspan><tspan id="tspan3846" x="130.857" y="948.662" font-family="Orienta" font-stretch="normal" font-style="normal" font-variant="normal" font-weight="normal" style="-inkscape-font-specification:Orienta">for the evil Queen and Jack.</tspan></text><path id="path3876" fill="#5a0" fill-opacity="1" stroke="#fff" stroke-dasharray="none" stroke-miterlimit="4" stroke-width="5.276" d="m 293.95439,348.28586 a 102.53049,31.31473 0 1 1 -205.060973,0 102.53049,31.31473 0 1 1 205.060973,0 z" transform="matrix(0.81665887,-0.40182283,0.44084463,0.89596626,218.76091,148.35385)"/><path id="path3878" fill="#5a0" fill-opacity="1" stroke="none" d="m 118.19914,668.35787 c 10.63168,21.779 39.50784,29.38862 64.49985,16.99423 24.99201,-12.3944 36.63033,-40.09654 25.99866,-61.87553 l -0.0292,0.0145 c 3.08541,8.29779 -13.76119,24.53335 -38.26032,36.68329 -24.49951,12.15015 -47.54035,15.69634 -52.17985,8.16908 l -0.0292,0.0145 z"/><path id="path3880" fill="#e15d55" fill-opacity="1" stroke="#fff" stroke-dasharray="none" stroke-miterlimit="4" stroke-width="6.074" d="m 293.95439,348.28586 a 102.53049,31.31473 0 1 1 -205.060973,0 102.53049,31.31473 0 1 1 205.060973,0 z" transform="matrix(0.44253453,-0.21774143,0.23888674,0.48550995,-5.1840023,517.26414)"/><text font-stretch="normal" style="line-height:125%;-inkscape-font-specification:Orienta" id="text3882" x="218.217" y="666.713" fill="#5a0" fill-opacity="1" stroke="none" font-family="Orienta" font-size="35.404" font-style="normal" font-variant="normal" font-weight="normal" letter-spacing="0" word-spacing="0" xml:space="preserve"><tspan id="tspan3884" x="218.217" y="666.713" fill="#5a0" fill-opacity="1" letter-spacing="-2.291">melon<tspan id="tspan3886" fill="#e15d55" fill-opacity="1">.</tspan>js</tspan></text><path id="path3888" fill="#2b1100" fill-opacity="1" stroke="none" d="m 427.67373,668.79653 c 10.63167,21.779 39.50785,29.38862 64.49986,16.99423 24.992,-12.3944 36.63032,-40.09653 25.99865,-61.87553 l -0.0292,0.0145 c 3.08541,8.29779 -13.76119,24.53335 -38.26032,36.6833 -24.49951,12.15014 -47.54035,15.69634 -52.17986,8.16907 l -0.0292,0.0145 z"/><path id="path3890" fill="#000" fill-opacity="1" stroke="#fff" stroke-dasharray="none" stroke-miterlimit="4" stroke-width="6.074" d="m 293.95439,348.28586 a 102.53049,31.31473 0 1 1 -205.060973,0 102.53049,31.31473 0 1 1 205.060973,0 z" transform="matrix(0.44253453,-0.21774143,0.23888674,0.48550995,304.29059,517.7028)"/><text id="text3892" x="523.651" y="668.162" fill="#241c1c" fill-opacity="1" stroke="none" font-family="Orienta" font-size="35.404" font-stretch="normal" font-style="normal" font-variant="normal" font-weight="normal" letter-spacing="0" word-spacing="0" xml:space="preserve" style="line-height:125%;-inkscape-font-specification:Orienta"><tspan id="tspan3894" x="523.651" y="668.162" fill="#241c1c" letter-spacing="-2.291">melon.js</tspan></text></g></svg>